<?xml version="1.0" encoding="iso-8859-1"?>
<!-- Uploaded to: SVG Repo, www.svgrepo.com, Generator: SVG Repo Mixer Tools -->
<svg height="800px" width="800px" version="1.1" id="Layer_1" xmlns="http://www.w3.org/2000/svg" xmlns:xlink="http://www.w3.org/1999/xlink" 
	 viewBox="0 0 512.001 512.001" xml:space="preserve">
<path style="fill:#A5EB78;" d="M346.36,0.025c1.819-0.164,3.675,0.486,4.984,1.795c1.313,1.313,1.972,3.141,1.795,4.988
	c-4.991,52.339-46.687,93.944-99.142,98.92c-0.198,0.019-0.395,0.031-0.59,0.031c-1.644,0-3.229-0.65-4.398-1.823
	c-1.313-1.313-1.972-3.141-1.795-4.988C252.206,46.601,293.902,5.001,346.36,0.025z"/>
<path style="fill:#8CD76E;" d="M253.999,105.728c-0.198,0.019-0.395,0.031-0.59,0.031c-1.644,0-3.229-0.65-4.398-1.823l102.2-102.2
	c0.039,0.038,0.096,0.046,0.134,0.085c1.313,1.313,1.972,3.141,1.795,4.988C348.15,59.147,306.454,100.752,253.999,105.728z"/>
<path style="fill:#73BE73;" d="M238.338,123.664c-2.26,0-4.521-0.862-6.245-2.587c-3.45-3.45-3.45-9.04,0-12.49l61.822-61.822
	c3.449-3.448,9.04-3.448,12.489,0c3.45,3.45,3.45,9.04,0,12.49l-61.822,61.822C242.859,122.801,240.598,123.664,238.338,123.664z"/>
<circle style="fill:#FFAA64;" cx="256" cy="300.036" r="211.962"/>
<g>
	<path style="fill:#FF914B;" d="M361.982,459.009c-117.065,0-211.962-94.9-211.962-211.962c0-61.538,26.641-116.476,68.524-155.197
		C119.419,109.598,44.04,195.805,44.04,300.039c0,117.061,94.897,211.962,211.962,211.962c55.526,0,105.644-21.825,143.434-56.765
		C387.232,457.418,374.813,459.009,361.982,459.009z"/>
	<circle style="fill:#FF914B;" cx="278.08" cy="171.976" r="13.248"/>
	<circle style="fill:#FF914B;" cx="401.724" cy="366.274" r="13.248"/>
	<circle style="fill:#FF914B;" cx="317.823" cy="202.887" r="8.832"/>
	<circle style="fill:#FF914B;" cx="397.308" cy="317.699" r="8.832"/>
	<circle style="fill:#FF914B;" cx="353.149" cy="406.017" r="8.832"/>
</g>
</svg>