<?xml version="1.0" encoding="iso-8859-1"?>
<!-- Uploaded to: SVG Repo, www.svgrepo.com, Generator: SVG Repo Mixer Tools -->
<svg height="800px" width="800px" version="1.1" id="Layer_1" xmlns="http://www.w3.org/2000/svg" xmlns:xlink="http://www.w3.org/1999/xlink" 
	 viewBox="0 0 512 512" xml:space="preserve">
<circle style="fill:#F2F2F2;" cx="256.001" cy="256.024" r="247.111"/>
<circle style="fill:#E6E6E6;" cx="256.001" cy="256.024" r="159.581"/>
<path style="fill:#F4C67D;" d="M307.507,368.984c-89.751,0.001-162.624-72.872-162.622-162.624c0-5.552,0.279-11.037,0.821-16.445
	c2.009-19.997-23.085-30.367-35.652-14.682c-22.3,27.834-35.638,63.158-35.638,101.598c0,90.062,72.558,162.621,162.62,162.621
	c38.44,0,73.765-13.338,101.599-35.638c15.684-12.566,5.315-37.661-14.682-35.652C318.545,368.705,313.059,368.984,307.507,368.984z
	"/>
<path style="fill:#E0B16E;" d="M257.581,427.599c-90.062,0-162.62-72.559-162.62-162.621c0-36.477,12.017-70.144,32.299-97.272
	c-6.109-0.538-12.526,1.685-17.206,7.527c-22.3,27.834-35.638,63.158-35.638,101.598c0,90.062,72.558,162.621,162.62,162.621
	c33.798,0,65.186-10.315,91.194-27.963C306.866,421.811,282.9,427.599,257.581,427.599z"/>
<path style="fill:#F97E62;" d="M407.024,171.925L407.024,171.925c0-22.881-18.092-42.369-40.958-43.182
	c-24.007-0.853-44.035,18.355-44.035,42.171v0.249c0,15.51-6.29,30.18-17.531,40.866c-16.49,15.678-26.24,37.716-26.24,62.136
	c0,47.603,38.552,70.928,86.154,70.928s86.397-23.327,86.397-70.928c0-24.276-10.558-46.198-26.503-61.859
	C413.422,201.612,407.024,187.187,407.024,171.925z"/>
<path style="fill:#E86B56;" d="M340.319,212.028c-6.661,15.681-10.596,37.714-10.596,62.142c0,47.54,15.527,70.866,34.692,70.925
	c-47.611,0-86.155-23.326-86.155-70.925c0-24.428,9.743-46.462,26.241-62.142c11.236-10.691,17.53-25.352,17.53-40.867v-0.249
	c0-23.302,19.165-42.195,42.491-42.195c-9.411,0.012-17.139,18.905-17.139,42.195v0.249
	C347.383,186.676,344.847,201.337,340.319,212.028z"/>
<path style="fill:#BADB82;" d="M368.261,112.495L368.261,112.495c-34.609,0-62.666-28.056-62.666-62.666l0,0l0,0
	C340.204,49.829,368.261,77.885,368.261,112.495L368.261,112.495z"/>
<g>
	<circle style="fill:#76C7F4;" cx="191.998" cy="168.494" r="19.26"/>
	<circle style="fill:#76C7F4;" cx="236.86" cy="216.354" r="19.26"/>
	<circle style="fill:#76C7F4;" cx="262.816" cy="151.853" r="19.26"/>
</g>
<path d="M437.02,74.981C388.668,26.629,324.38,0,256,0S123.333,26.629,74.981,74.981S0.001,187.62,0.001,256.001
	c0,2.814,0.046,5.656,0.136,8.448c0.16,4.907,4.286,8.754,9.173,8.597c4.907-0.159,8.755-4.267,8.597-9.173
	c-0.084-2.603-0.127-5.251-0.127-7.872C17.779,124.645,124.645,17.779,256,17.779s238.222,106.866,238.222,238.222
	S387.356,494.223,256,494.223c-58.229,0-114.282-21.234-157.835-59.787c-43.18-38.225-71.021-90.607-78.397-147.498
	c-0.631-4.868-5.089-8.296-9.958-7.673c-4.868,0.632-8.304,5.089-7.673,9.958c7.927,61.151,37.846,117.449,84.244,158.524
	C133.186,489.182,193.424,512,255.999,512c68.38,0,132.668-26.629,181.02-74.981c48.352-48.352,74.981-112.64,74.981-181.02
	S485.372,123.333,437.02,74.981z"/>
<path d="M291.082,91.986c-11.46-2.44-23.263-3.677-35.081-3.677c-44.793,0-86.903,17.443-118.575,49.115
	c-3.472,3.472-3.472,9.1,0,12.571c1.735,1.735,4.011,2.604,6.285,2.604s4.55-0.868,6.285-2.604
	c28.315-28.314,65.961-43.909,106.005-43.909c10.576,0,21.134,1.106,31.379,3.288c4.799,1.02,9.522-2.042,10.545-6.844
	C298.947,97.729,295.883,93.007,291.082,91.986z"/>
<path d="M103.118,169.65c-24.241,30.256-37.59,68.311-37.59,107.155c0,45.932,17.806,89.035,50.141,121.369
	s75.436,50.142,121.369,50.142c38.845,0,76.901-13.349,107.157-37.59c10.267-8.226,13.697-21.384,8.738-33.526
	c-4.985-12.202-16.715-19.234-29.866-17.908c-5.133,0.516-10.367,0.778-15.559,0.778c-45.857,0-88.993-20.285-118.349-55.657
	c-3.136-3.779-8.741-4.299-12.517-1.164c-3.779,3.136-4.299,8.74-1.164,12.517c30.371,36.594,73.973,58.699,120.958,61.713
	c-1.837,10.346-3.236,26.241,1.325,40.657c-18.952,8.171-39.453,12.4-60.722,12.4c-41.184,0-79.823-15.958-108.798-44.934
	c-28.976-28.976-44.933-67.615-44.933-108.798c0-26.744,6.682-52.274,19.49-75.037l33.333,11.032
	c1.043,27.641,8.748,54.7,22.464,78.636c2.442,4.26,7.874,5.734,12.132,3.293c4.259-2.442,5.734-7.874,3.293-12.132
	c-13.245-23.112-20.246-49.484-20.245-76.262c0-5.19,0.262-10.423,0.778-15.556c1.323-13.16-5.707-24.883-17.908-29.867
	C124.504,155.954,111.343,159.382,103.118,169.65z M314.502,377.694c3.463-0.14,6.923-0.369,10.341-0.712
	c6.228-0.623,10.092,3.176,11.63,6.942c0.737,1.804,2.67,8.068-3.395,12.927c-6.122,4.905-12.528,9.291-19.175,13.153
	C311.064,398.408,312.932,385.216,314.502,377.694z M129.92,177.37c3.767,1.538,7.568,5.402,6.942,11.631
	c-0.172,1.715-0.311,3.442-0.431,5.172l-23.694-7.842c1.374-1.879,2.79-3.736,4.256-5.566
	C121.852,174.701,128.115,176.634,129.92,177.37z"/>
<path d="M242.583,413.91c0.465,0.072,0.924,0.107,1.38,0.107c4.305,0,8.089-3.135,8.772-7.522c0.756-4.851-2.564-9.397-7.415-10.152
	c-10.462-1.63-20.77-4.351-30.639-8.089c-4.595-1.739-9.724,0.574-11.461,5.165c-1.739,4.592,0.574,9.723,5.165,11.461
	C219.402,409.053,230.907,412.091,242.583,413.91z"/>
<path d="M185.051,393.964c1.38,0.778,2.878,1.147,4.356,1.147c3.104,0,6.119-1.63,7.753-4.526c2.411-4.276,0.897-9.699-3.38-12.108
	c-30.27-17.059-54.077-44.174-67.034-76.35c-1.834-4.554-7.012-6.758-11.567-4.925c-4.554,1.834-6.759,7.013-4.925,11.567
	C124.714,344.673,151.278,374.931,185.051,393.964z"/>
<path d="M119.663,279.682c-2.667-11.46-4.018-23.309-4.018-35.215c0-4.909-3.98-8.889-8.889-8.889c-4.909,0-8.889,3.98-8.889,8.889
	c0,13.26,1.508,26.464,4.481,39.243c0.955,4.104,4.609,6.877,8.65,6.877c0.667,0,1.344-0.075,2.022-0.233
	C117.801,289.242,120.776,284.464,119.663,279.682z"/>
<path d="M397.236,101.694c4.91,0,8.889-3.98,8.889-8.889s-3.979-8.889-8.889-8.889c-8.676,0-16.698,2.872-23.189,7.716
	c-8.944-29.323-36.241-50.718-68.451-50.718c-4.91,0-8.889,3.98-8.889,8.889c0,35.508,26.002,65.044,59.961,70.601
	c-10.435,1.591-20.121,6.342-27.909,13.859c-10.072,9.72-15.619,22.727-15.619,36.624v0.248c0,13.146-5.244,25.371-14.766,34.424
	c-18.703,17.782-29.004,42.137-29.004,68.578c0,48.488,37.307,79.818,95.042,79.818c57.885,0,95.288-31.331,95.288-79.818
	c0-5.812-0.554-11.654-1.646-17.361c-0.922-4.822-5.58-7.986-10.4-7.061c-4.822,0.922-7.983,5.58-7.06,10.4
	c0.882,4.609,1.329,9.327,1.329,14.021c0,45.742-40.039,62.039-77.509,62.039c-37.352,0-77.264-16.297-77.264-62.039
	c0-21.523,8.337-41.301,23.476-55.693c13.086-12.443,20.294-29.243,20.294-47.309v-0.248c0-9.029,3.619-17.492,10.187-23.832
	c6.658-6.425,15.414-9.777,24.644-9.456c17.857,0.635,32.384,16.021,32.384,34.299c0,17.497,7.084,34.09,19.946,46.722
	c5.955,5.849,10.942,12.51,14.821,19.799c2.305,4.333,7.69,5.978,12.024,3.671c4.333-2.306,5.977-7.69,3.672-12.023
	c-4.733-8.892-10.808-17.012-18.06-24.132c-9.431-9.263-14.625-21.351-14.625-34.038c0-24.378-17.166-45.366-39.864-50.753
	C377.094,110.077,386.022,101.694,397.236,101.694z M315.377,59.583c21.826,4.026,39.077,21.277,43.104,43.105
	C336.655,98.662,319.403,81.411,315.377,59.583z"/>
<path d="M191.999,140.314c-15.522,0-28.15,12.628-28.15,28.15s12.628,28.15,28.15,28.15s28.15-12.628,28.15-28.15
	S207.521,140.314,191.999,140.314z M191.999,178.834c-5.719,0-10.371-4.652-10.371-10.371s4.652-10.371,10.371-10.371
	s10.371,4.652,10.371,10.371S197.718,178.834,191.999,178.834z"/>
<path d="M236.863,244.476c15.522,0,28.15-12.628,28.15-28.15s-12.628-28.15-28.15-28.15s-28.15,12.628-28.15,28.15
	S221.341,244.476,236.863,244.476z M236.863,205.956c5.719,0,10.371,4.652,10.371,10.371s-4.652,10.371-10.371,10.371
	s-10.371-4.652-10.371-10.371S231.144,205.956,236.863,205.956z"/>
<path d="M290.969,151.833c0-15.522-12.628-28.15-28.15-28.15c-15.522,0-28.15,12.629-28.15,28.15s12.628,28.15,28.15,28.15
	C278.342,179.983,290.969,167.354,290.969,151.833z M262.82,162.204c-5.719,0-10.371-4.652-10.371-10.371
	c0-5.719,4.652-10.371,10.371-10.371c5.719,0,10.371,4.653,10.371,10.371C273.191,157.551,268.539,162.204,262.82,162.204z"/>
</svg>